<?xml version="1.0" encoding="UTF-8"?>
<svg xmlns="http://www.w3.org/2000/svg" viewBox="0 0 1200 630" width="1200" height="630">
  <defs>
    <linearGradient id="g89640" x1="90.95760221444958%" y1="21.32117818244768%" x2="9.04239778555042%" y2="78.67882181755232%">
      <stop offset="0%" stop-color="#D97706"/>
      <stop offset="100%" stop-color="#B45309"/>
    </linearGradient>
  </defs>
  <rect width="1200" height="630" fill="url(#g89640)"/>
  <path d="M 100 184.3118411488831 L 100 250.98725625475785 L 110 206.94086200820922 L 120 251.52972341551197 L 130 239.29945051418903 L 140 250.35194181700683 L 150 168.23642404055076 L 160 174.56035911289194 L 170 143.7599760212149 L 180 152.2731681637405 L 190 137.55621929337104 L 200 133.2975297656499 L 210 250.85655250034142 L 220 188.35648402626674 L 230 121.18285338740111 L 240 139.71602270855905 L 250 226.30468741797512 L 260 121.54791968496139 L 270 198.9131779483719 L 280 148.53915021000813 L 290 117.455564454537 L 300 137.12640932716562 L 310 143.5223480524767 L 320 121.35597343859024 L 330 138.41693861463608 L 340 125.04673362009845 L 350 136.68497245508019 L 360 122.74554079126176 L 370 138.65370763354028 L 380 186.1623787711089 L 390 128.89459815838302 L 400 117.4421777912148 L 410 194.4206825128981 L 420 176.21358199341972 L 430 126.42705948209954 L 440 215.25272029560014 L 450 119.0287619378686 L 460 138.33364329652568 L 470 247.89910844098353 L 480 245.3449682882025 L 490 139.51866225086826 L 500 149.84172167492835 L 510 145.2127382465152 L 520 251.4564483725847 L 530 134.43296210444203 L 540 148.15802978155847 L 550 250.37772799992422 L 560 209.82186394486627 L 570 234.0445859232418 L 580 247.35402476526775 L 590 231.8546980932348 L 600 200.8129263237049 L 610 228.0600338073707 L 620 222.34480388291644 L 630 251.4842975299546 L 640 250.7173572337369 L 650 226.7346658882509 L 660 238.67752556793533 L 670 251.2404072268439 L 680 185.17130394520626 L 690 172.54952382567512 L 700 170.70625591113202 L 710 128.68214938750003 L 720 153.23713559045464 L 730 237.59897524692065 L 740 244.0239180564621 L 750 117.40052707050263 L 760 236.59157504729558 L 770 230.78562839485966 L 780 172.08680938411334 L 790 216.65109281062917 L 800 118.0276708628525 L 810 118.00051094297447 L 820 209.7195212771884 L 830 190.07824519250812 L 840 125.39707015763443 L 850 182.3743304284511 L 860 117.09303855201512 L 870 181.71929304802458 L 880 117.17760544067838 L 890 118.46979375447516 L 900 193.35759949788877 L 910 125.20691324437101 L 920 130.61855000249363 L 930 146.56866908125585 L 940 117.32238781703727 L 950 118.25193665426556 L 960 145.08031854527266 L 970 195.11758101503756 L 980 246.46085707847269 L 990 131.20280676058357 L 1000 247.72634438819327 L 1010 250.8002798049477 L 1020 174.33182399503377 L 1030 138.43267794652454 L 1040 208.2202517982677 L 1050 223.27651146445055 L 1060 241.93047446969462 L 1070 218.0501248217638 L 1080 208.31451638068808 L 1090 251.50382968184118 L 1100 196.5284636153464" fill="none" stroke="rgba(255,255,255,0.15)" stroke-width="3"/><text x="719.6036065695807" y="310.0006652623415" font-family="serif" font-size="180" fill="rgba(255,255,255,0.08)" font-weight="bold">π</text><polygon points="104.82065184041858,187.8313587559387 49.55032564089633,283.12502461718395 160.0909780399408,283.12502461718395" fill="none" stroke="rgba(255,255,255,0.13141045588068664)" stroke-width="2"/><polygon points="579.7423151321709,468.21861983044073 528.8295392329804,555.9992679324932 630.6550910313614,555.9992679324932" fill="none" stroke="rgba(255,255,255,0.083066372172907)" stroke-width="2"/><polygon points="930.5295230820775,402.04431341029704 899.1220103687607,456.1951973987743 961.9370357953943,456.1951973987743" fill="none" stroke="rgba(255,255,255,0.1119527920242399)" stroke-width="2"/><polygon points="195.43546033091843,360.3874256950803 154.32105392785743,431.2743332865648 236.54986673397943,431.2743332865648" fill="none" stroke="rgba(255,255,255,0.08536387295462192)" stroke-width="2"/><polygon points="1056.407057121396,217.45496402028948 984.1744582401122,341.9939276087098 1128.6396560026799,341.9939276087098" fill="none" stroke="rgba(255,255,255,0.08093391777016222)" stroke-width="2"/><line x1="725.1097179297358" y1="245.33174375537783" x2="885.1097179297358" y2="245.33174375537783" stroke="rgba(255,255,255,0.12)" stroke-width="2"/><line x1="805.1097179297358" y1="165.33174375537783" x2="805.1097179297358" y2="325.33174375537783" stroke="rgba(255,255,255,0.12)" stroke-width="2"/><text x="184.45580607280135" y="428.28062197659165" font-family="serif" font-size="140" fill="rgba(255,255,255,0.07)">∫</text><circle cx="825.6592836230993" cy="273.55284097837284" r="26.26590857282281" fill="none" stroke="rgba(255,255,255,0.07356503264978528)" stroke-width="1.5"/><circle cx="339.77236095815897" cy="169.94804798159748" r="36.600726284086704" fill="none" stroke="rgba(255,255,255,0.10732465769629926)" stroke-width="1.5"/><circle cx="916.9495711103082" cy="338.1709440308623" r="58.17004015669227" fill="none" stroke="rgba(255,255,255,0.06435251302551478)" stroke-width="1.5"/><circle cx="537.6741958782077" cy="165.19087774213403" r="30.373937850818038" fill="none" stroke="rgba(255,255,255,0.15863422375638037)" stroke-width="1.5"/>
  <circle cx="399.40792405977845" cy="404.3461222643964" r="1.3808521241880953" fill="rgba(255,255,255,0.04382701069815084)"/><circle cx="1089.5238507539034" cy="0.37797662196680903" r="1.2494768435135484" fill="rgba(255,255,255,0.06703982977895066)"/><circle cx="389.10247161984444" cy="24.502285332418978" r="2.4962755641900003" fill="rgba(255,255,255,0.06918126823846252)"/><circle cx="389.77574659511447" cy="187.12815324543044" r="1.3441002583131194" fill="rgba(255,255,255,0.04585505305556581)"/><circle cx="219.71753798425198" cy="381.6275493451394" r="2.0057147587649524" fill="rgba(255,255,255,0.04148182593751699)"/><circle cx="27.74632964283228" cy="344.07628297805786" r="1.8730171518400311" fill="rgba(255,255,255,0.07735523256240412)"/><circle cx="116.09862679615617" cy="43.659717484842986" r="2.167624281719327" fill="rgba(255,255,255,0.03497913701692596)"/><circle cx="1053.1885804608464" cy="204.8433924978599" r="1.8450243081897497" fill="rgba(255,255,255,0.04498878023121506)"/><circle cx="466.2128104828298" cy="316.1738393129781" r="2.35874998383224" fill="rgba(255,255,255,0.06945784725947306)"/><circle cx="3.4570734947919846" cy="315.0311633083038" r="1.6287938528694212" fill="rgba(255,255,255,0.07014629863668234)"/><circle cx="599.2483424954116" cy="268.19080331129953" r="2.3318760013207793" fill="rgba(255,255,255,0.06872557901777326)"/><circle cx="148.95189749076962" cy="426.95999366696924" r="1.2785734618082643" fill="rgba(255,255,255,0.0387838641135022)"/><circle cx="442.41925785318017" cy="364.00161880999804" r="2.5869834856130183" fill="rgba(255,255,255,0.04191520297434181)"/><circle cx="87.46145507320762" cy="62.510371184907854" r="2.3902023509144783" fill="rgba(255,255,255,0.06570784265175461)"/><circle cx="826.0424223728478" cy="539.2252269317396" r="2.0556723992340267" fill="rgba(255,255,255,0.06979273691074922)"/><circle cx="72.5815418176353" cy="196.8028520559892" r="2.759386135265231" fill="rgba(255,255,255,0.030350451353006062)"/><circle cx="781.7261234857142" cy="99.46553214685991" r="2.7033936330117285" fill="rgba(255,255,255,0.050710287487599995)"/><circle cx="537.0161564089358" cy="4.522266404237598" r="1.4715021196752787" fill="rgba(255,255,255,0.051025185100734234)"/><circle cx="128.33279063925147" cy="466.76303535467014" r="1.7699528047814965" fill="rgba(255,255,255,0.07793364173965528)"/><circle cx="977.6061586104333" cy="236.83691745623946" r="1.6043357430025935" fill="rgba(255,255,255,0.031177448639646173)"/>
  <text x="600" y="335" font-family="system-ui, -apple-system, 'Segoe UI', sans-serif" font-size="50" font-weight="700" fill="rgba(0,0,0,0.15)" text-anchor="middle" letter-spacing="1">A Level Further Mathematics</text>
  <text x="600" y="332" font-family="system-ui, -apple-system, 'Segoe UI', sans-serif" font-size="50" font-weight="700" fill="white" text-anchor="middle" letter-spacing="1">A Level Further Mathematics</text>
  <g transform="translate(1140, 575)">
    <rect x="0" y="0" width="40" height="40" rx="8" fill="rgba(255,255,255,0.15)"/>
    <text x="20" y="29" font-family="sans-serif" font-weight="bold" font-size="24" fill="rgba(255,255,255,0.6)" text-anchor="middle">K</text>
  </g>
</svg>